<?xml version="1.0" encoding="UTF-8" standalone="no"?>
<!DOCTYPE svg PUBLIC "-//W3C//DTD SVG 1.1//EN" "http://www.w3.org/Graphics/SVG/1.1/DTD/svg11.dtd">
<svg width="100%" height="100%" viewBox="0 0 473 584" version="1.1" xmlns="http://www.w3.org/2000/svg" xmlns:xlink="http://www.w3.org/1999/xlink" xml:space="preserve" xmlns:serif="http://www.serif.com/" style="fill-rule:evenodd;clip-rule:evenodd;stroke-linecap:round;stroke-linejoin:round;stroke-miterlimit:1.5;">
    <g transform="matrix(6.27966,0,0,6.27966,-95.2507,-105.881)">
        <path d="M22.502,67.757L24.873,76.791C27.218,74.369 29.121,70.31 30.986,68.854C35.211,65.557 34.394,90.838 38.201,90.115C44.36,88.945 45.174,69.272 47.585,65.401C52.529,68.974 51.624,103.357 58.628,102.046C62.608,100.692 64.101,85.658 65.576,62.18C67.242,47.714 74.405,35.242 80.655,38.024L86.278,40.079C89.112,32.803 83.696,23.279 77.007,23.269C64.509,23.252 56.211,46.605 57.209,81.002C54.951,68.7 52.957,54.388 48.373,55.38C41.983,56.764 40.646,65.608 39.476,74.817C38.084,54.864 29.538,57.778 22.502,67.757Z" style="fill:rgb(104,136,149);stroke:black;stroke-width:0.73px;"/>
    </g>
    <g transform="matrix(6.27966,0,0,6.27966,-111.973,-110.411)">
        <path d="M22.502,67.757L24.873,76.791C27.218,74.369 29.121,70.31 30.986,68.854C35.211,65.557 34.394,90.838 38.201,90.115C44.36,88.945 45.174,69.272 47.585,65.401C52.529,68.974 51.624,103.357 58.628,102.046C62.608,100.692 64.101,85.658 65.576,62.18C67.242,47.714 74.405,35.242 80.655,38.024L86.278,40.079C89.112,32.803 83.696,23.279 77.007,23.269C64.509,23.252 56.211,46.605 57.209,81.002C54.951,68.7 52.957,54.388 48.373,55.38C41.983,56.764 40.646,65.608 39.476,74.817C38.084,54.864 29.538,57.778 22.502,67.757Z" style="fill:rgb(51,66,72);stroke:black;stroke-width:0.73px;"/>
    </g>
    <g transform="matrix(6.27966,0,0,6.27966,-104.33,-111.516)">
        <ellipse cx="72.302" cy="68.236" rx="4.378" ry="4.618" style="fill:rgb(104,136,149);stroke:black;stroke-width:0.8px;"/>
    </g>
    <g transform="matrix(6.27966,0,0,6.27966,-114.296,-114.891)">
        <ellipse cx="72.302" cy="68.236" rx="4.378" ry="4.618" style="fill:rgb(51,66,72);stroke:black;stroke-width:0.8px;"/>
    </g>
</svg>
